<svg width="341" height="212" viewBox="0 0 341 212" fill="none" xmlns="http://www.w3.org/2000/svg">
<g filter="url(#filter0_b_74_358)">
<rect x="-34" y="-600" width="375" height="812" rx="39" fill="#F7F8FB"/>
<g filter="url(#filter1_b_74_358)">
<rect y="112" width="144" height="60" rx="16" fill="url(#paint0_linear_74_358)"/>
<path d="M63.664 141.544C63.664 145.149 64.304 147.976 65.584 150.024C66.864 152.051 68.9973 153.064 71.984 153.064C74.9707 153.064 77.104 152.04 78.384 149.992C79.664 147.944 80.304 145.128 80.304 141.544C80.304 137.981 79.664 135.187 78.384 133.16C77.104 131.112 74.9707 130.088 71.984 130.088C68.9973 130.088 66.864 131.101 65.584 133.128C64.304 135.155 63.664 137.96 63.664 141.544ZM76.656 141.544C76.656 144.147 76.336 146.141 75.696 147.528C75.056 148.915 73.8187 149.608 71.984 149.608C70.128 149.608 68.88 148.915 68.24 147.528C67.6 146.141 67.28 144.147 67.28 141.544C67.28 138.963 67.6 136.989 68.24 135.624C68.88 134.259 70.128 133.576 71.984 133.576C73.8187 133.576 75.056 134.269 75.696 135.656C76.336 137.021 76.656 138.984 76.656 141.544Z" fill="#109DFF"/>
<rect x="0.5" y="112.5" width="143" height="59" rx="15.5" stroke="white"/>
</g>
<rect x="246" y="74" width="62" height="96" rx="12" fill="#1991FF"/>
<path d="M285.516 116.168V119.496H268.492V116.168H285.516ZM285.516 123.368V126.696H268.492V123.368H285.516Z" fill="#B2DAFF"/>
<rect x="246" y="-48" width="62" height="96" rx="12" fill="#ADE2FF"/>
<path d="M284.812 1.144H278.412V7.608H274.86V1.144H268.492V-2.216H274.86V-8.712H278.412V-2.216H284.812V1.144Z" fill="#109DFF"/>
<g filter="url(#filter2_b_74_358)">
<rect x="164" y="110" width="62" height="62" rx="16" fill="url(#paint1_linear_74_358)"/>
<rect x="193.5" y="139.5" width="3.5" height="3.5" fill="#38B9FF" stroke="url(#paint2_linear_74_358)"/>
</g>
<g filter="url(#filter3_b_74_358)">
<rect x="164" y="22" width="62" height="60" rx="16" fill="url(#paint3_linear_74_358)"/>
<path d="M195.1 39.704C196.593 39.704 197.873 39.9707 198.94 40.504C200.007 41.016 200.807 41.7307 201.34 42.648C201.895 43.5653 202.172 44.5893 202.172 45.72C202.172 47.1493 201.767 48.344 200.956 49.304C200.167 50.2427 199.047 50.808 197.596 51V51.16C199.153 51.608 200.369 52.28 201.244 53.176C202.14 54.0507 202.588 55.2667 202.588 56.824C202.588 58.7227 201.959 60.2693 200.7 61.464C199.441 62.6373 197.639 63.224 195.292 63.224C192.881 63.224 190.94 62.616 189.468 61.4C187.996 60.1627 187.153 58.3387 186.94 55.928H190.556C190.684 57.208 191.143 58.232 191.932 59C192.721 59.7467 193.788 60.12 195.132 60.12C196.391 60.12 197.351 59.7893 198.012 59.128C198.695 58.4667 199.036 57.6133 199.036 56.568C199.036 55.3093 198.545 54.3493 197.564 53.688C196.604 53.0267 195.207 52.696 193.372 52.696H192.508V49.688H193.372C196.849 49.7307 198.588 48.5467 198.588 46.136C198.588 45.0907 198.268 44.2693 197.628 43.672C196.988 43.0747 196.113 42.776 195.004 42.776C193.895 42.776 192.967 43.1173 192.22 43.8C191.473 44.4613 191.025 45.432 190.876 46.712H187.292C187.441 44.4933 188.188 42.776 189.532 41.56C190.876 40.3227 192.732 39.704 195.1 39.704Z" fill="#38B9FF"/>
<rect x="164.5" y="22.5" width="61" height="59" rx="15.5" stroke="white"/>
</g>
<g filter="url(#filter4_b_74_358)">
<rect y="22" width="62" height="60" rx="16" fill="url(#paint4_linear_74_358)"/>
<path d="M26.416 43.832V40.408H33.648V63H29.808V43.832H26.416Z" fill="#38B9FF"/>
<rect x="0.5" y="22.5" width="61" height="59" rx="15.5" stroke="white"/>
</g>
<g filter="url(#filter5_b_74_358)">
<rect x="82" y="22" width="62" height="60" rx="16" fill="url(#paint5_linear_74_358)"/>
<path d="M104.78 60.152C108.236 57.784 110.999 55.4693 113.068 53.208C115.159 50.9253 116.204 48.8133 116.204 46.872C116.204 45.72 115.916 44.8027 115.34 44.12C114.785 43.4373 113.879 43.096 112.62 43.096C111.319 43.096 110.337 43.5227 109.676 44.376C109.015 45.208 108.641 46.4027 108.556 47.96H105.004C105.153 45.3787 105.943 43.4053 107.372 42.04C108.823 40.6747 110.668 39.992 112.908 39.992C115.105 39.992 116.823 40.5787 118.06 41.752C119.319 42.904 119.948 44.504 119.948 46.552C119.948 48.1947 119.436 49.8587 118.412 51.544C117.409 53.2293 116.129 54.7867 114.572 56.216C113.015 57.624 111.404 58.84 109.74 59.864H120.46V62.84H104.78V60.152Z" fill="#38B9FF"/>
<rect x="82.5" y="22.5" width="61" height="59" rx="15.5" stroke="white"/>
</g>
<g filter="url(#filter6_b_74_358)">
<rect x="164" y="-54" width="62" height="60" rx="16" fill="url(#paint6_linear_74_358)"/>
<rect x="164.5" y="-53.5" width="61" height="59" rx="15.5" stroke="white"/>
</g>
<g filter="url(#filter7_b_74_358)">
<rect y="-54" width="62" height="60" rx="16" fill="url(#paint7_linear_74_358)"/>
<rect x="0.5" y="-53.5" width="61" height="59" rx="15.5" stroke="white"/>
</g>
<g filter="url(#filter8_b_74_358)">
<rect x="82" y="-54" width="62" height="60" rx="16" fill="url(#paint8_linear_74_358)"/>
<rect x="82.5" y="-53.5" width="61" height="59" rx="15.5" stroke="white"/>
</g>
<g filter="url(#filter9_di_74_358)">
<rect x="246" y="74" width="62" height="96" rx="12" fill="#19ACFF"/>
<path d="M285.516 116.168V119.496H268.492V116.168H285.516ZM285.516 123.368V126.696H268.492V123.368H285.516Z" fill="#B2DAFF"/>
</g>
</g>
<defs>
<filter id="filter0_b_74_358" x="-136" y="-702" width="579" height="1016" filterUnits="userSpaceOnUse" color-interpolation-filters="sRGB">
<feFlood flood-opacity="0" result="BackgroundImageFix"/>
<feGaussianBlur in="BackgroundImageFix" stdDeviation="51"/>
<feComposite in2="SourceAlpha" operator="in" result="effect1_backgroundBlur_74_358"/>
<feBlend mode="normal" in="SourceGraphic" in2="effect1_backgroundBlur_74_358" result="shape"/>
</filter>
<filter id="filter1_b_74_358" x="-12" y="100" width="168" height="84" filterUnits="userSpaceOnUse" color-interpolation-filters="sRGB">
<feFlood flood-opacity="0" result="BackgroundImageFix"/>
<feGaussianBlur in="BackgroundImageFix" stdDeviation="6"/>
<feComposite in2="SourceAlpha" operator="in" result="effect1_backgroundBlur_74_358"/>
<feBlend mode="normal" in="SourceGraphic" in2="effect1_backgroundBlur_74_358" result="shape"/>
</filter>
<filter id="filter2_b_74_358" x="152" y="98" width="86" height="86" filterUnits="userSpaceOnUse" color-interpolation-filters="sRGB">
<feFlood flood-opacity="0" result="BackgroundImageFix"/>
<feGaussianBlur in="BackgroundImageFix" stdDeviation="6"/>
<feComposite in2="SourceAlpha" operator="in" result="effect1_backgroundBlur_74_358"/>
<feBlend mode="normal" in="SourceGraphic" in2="effect1_backgroundBlur_74_358" result="shape"/>
</filter>
<filter id="filter3_b_74_358" x="152" y="10" width="86" height="84" filterUnits="userSpaceOnUse" color-interpolation-filters="sRGB">
<feFlood flood-opacity="0" result="BackgroundImageFix"/>
<feGaussianBlur in="BackgroundImageFix" stdDeviation="6"/>
<feComposite in2="SourceAlpha" operator="in" result="effect1_backgroundBlur_74_358"/>
<feBlend mode="normal" in="SourceGraphic" in2="effect1_backgroundBlur_74_358" result="shape"/>
</filter>
<filter id="filter4_b_74_358" x="-12" y="10" width="86" height="84" filterUnits="userSpaceOnUse" color-interpolation-filters="sRGB">
<feFlood flood-opacity="0" result="BackgroundImageFix"/>
<feGaussianBlur in="BackgroundImageFix" stdDeviation="6"/>
<feComposite in2="SourceAlpha" operator="in" result="effect1_backgroundBlur_74_358"/>
<feBlend mode="normal" in="SourceGraphic" in2="effect1_backgroundBlur_74_358" result="shape"/>
</filter>
<filter id="filter5_b_74_358" x="70" y="10" width="86" height="84" filterUnits="userSpaceOnUse" color-interpolation-filters="sRGB">
<feFlood flood-opacity="0" result="BackgroundImageFix"/>
<feGaussianBlur in="BackgroundImageFix" stdDeviation="6"/>
<feComposite in2="SourceAlpha" operator="in" result="effect1_backgroundBlur_74_358"/>
<feBlend mode="normal" in="SourceGraphic" in2="effect1_backgroundBlur_74_358" result="shape"/>
</filter>
<filter id="filter6_b_74_358" x="152" y="-66" width="86" height="84" filterUnits="userSpaceOnUse" color-interpolation-filters="sRGB">
<feFlood flood-opacity="0" result="BackgroundImageFix"/>
<feGaussianBlur in="BackgroundImageFix" stdDeviation="6"/>
<feComposite in2="SourceAlpha" operator="in" result="effect1_backgroundBlur_74_358"/>
<feBlend mode="normal" in="SourceGraphic" in2="effect1_backgroundBlur_74_358" result="shape"/>
</filter>
<filter id="filter7_b_74_358" x="-12" y="-66" width="86" height="84" filterUnits="userSpaceOnUse" color-interpolation-filters="sRGB">
<feFlood flood-opacity="0" result="BackgroundImageFix"/>
<feGaussianBlur in="BackgroundImageFix" stdDeviation="6"/>
<feComposite in2="SourceAlpha" operator="in" result="effect1_backgroundBlur_74_358"/>
<feBlend mode="normal" in="SourceGraphic" in2="effect1_backgroundBlur_74_358" result="shape"/>
</filter>
<filter id="filter8_b_74_358" x="70" y="-66" width="86" height="84" filterUnits="userSpaceOnUse" color-interpolation-filters="sRGB">
<feFlood flood-opacity="0" result="BackgroundImageFix"/>
<feGaussianBlur in="BackgroundImageFix" stdDeviation="6"/>
<feComposite in2="SourceAlpha" operator="in" result="effect1_backgroundBlur_74_358"/>
<feBlend mode="normal" in="SourceGraphic" in2="effect1_backgroundBlur_74_358" result="shape"/>
</filter>
<filter id="filter9_di_74_358" x="214" y="64" width="108" height="142" filterUnits="userSpaceOnUse" color-interpolation-filters="sRGB">
<feFlood flood-opacity="0" result="BackgroundImageFix"/>
<feColorMatrix in="SourceAlpha" type="matrix" values="0 0 0 0 0 0 0 0 0 0 0 0 0 0 0 0 0 0 127 0" result="hardAlpha"/>
<feOffset dx="-9" dy="13"/>
<feGaussianBlur stdDeviation="11.5"/>
<feColorMatrix type="matrix" values="0 0 0 0 0 0 0 0 0 0.64 0 0 0 0 1 0 0 0 0.65 0"/>
<feBlend mode="normal" in2="BackgroundImageFix" result="effect1_dropShadow_74_358"/>
<feBlend mode="normal" in="SourceGraphic" in2="effect1_dropShadow_74_358" result="shape"/>
<feColorMatrix in="SourceAlpha" type="matrix" values="0 0 0 0 0 0 0 0 0 0 0 0 0 0 0 0 0 0 127 0" result="hardAlpha"/>
<feOffset dx="-3" dy="4"/>
<feGaussianBlur stdDeviation="5.5"/>
<feComposite in2="hardAlpha" operator="arithmetic" k2="-1" k3="1"/>
<feColorMatrix type="matrix" values="0 0 0 0 0.691667 0 0 0 0 0.87373 0 0 0 0 1 0 0 0 1 0"/>
<feBlend mode="normal" in2="shape" result="effect2_innerShadow_74_358"/>
</filter>
<linearGradient id="paint0_linear_74_358" x1="-25.5484" y1="112" x2="40.1539" y2="242.934" gradientUnits="userSpaceOnUse">
<stop stop-color="white" stop-opacity="0.6"/>
<stop offset="1" stop-color="white" stop-opacity="0.4"/>
</linearGradient>
<linearGradient id="paint1_linear_74_358" x1="153" y1="110" x2="236.24" y2="179.118" gradientUnits="userSpaceOnUse">
<stop stop-color="white" stop-opacity="0.6"/>
<stop offset="1" stop-color="white" stop-opacity="0.4"/>
</linearGradient>
<linearGradient id="paint2_linear_74_358" x1="192.637" y1="138.587" x2="195.384" y2="143.424" gradientUnits="userSpaceOnUse">
<stop stop-color="white" stop-opacity="0.85"/>
<stop offset="1" stop-color="white" stop-opacity="0.17"/>
</linearGradient>
<linearGradient id="paint3_linear_74_358" x1="153" y1="22" x2="234" y2="91.5" gradientUnits="userSpaceOnUse">
<stop stop-color="white" stop-opacity="0.6"/>
<stop offset="1" stop-color="white" stop-opacity="0.4"/>
</linearGradient>
<linearGradient id="paint4_linear_74_358" x1="-11" y1="22" x2="70" y2="91.5" gradientUnits="userSpaceOnUse">
<stop stop-color="white" stop-opacity="0.6"/>
<stop offset="1" stop-color="white" stop-opacity="0.4"/>
</linearGradient>
<linearGradient id="paint5_linear_74_358" x1="71" y1="22" x2="152" y2="91.5" gradientUnits="userSpaceOnUse">
<stop stop-color="white" stop-opacity="0.6"/>
<stop offset="1" stop-color="white" stop-opacity="0.4"/>
</linearGradient>
<linearGradient id="paint6_linear_74_358" x1="153" y1="-54" x2="234" y2="15.5" gradientUnits="userSpaceOnUse">
<stop stop-color="white" stop-opacity="0.6"/>
<stop offset="1" stop-color="white" stop-opacity="0.4"/>
</linearGradient>
<linearGradient id="paint7_linear_74_358" x1="-11" y1="-54" x2="70" y2="15.5" gradientUnits="userSpaceOnUse">
<stop stop-color="white" stop-opacity="0.6"/>
<stop offset="1" stop-color="white" stop-opacity="0.4"/>
</linearGradient>
<linearGradient id="paint8_linear_74_358" x1="82" y1="-67.5" x2="163.5" y2="-7" gradientUnits="userSpaceOnUse">
<stop stop-color="white" stop-opacity="0.6"/>
<stop offset="1" stop-color="white" stop-opacity="0.4"/>
</linearGradient>
</defs>
</svg>
