<svg width="217" height="206" viewBox="0 0 217 206" fill="none" xmlns="http://www.w3.org/2000/svg">
<rect width="375" height="812" rx="39" fill="url(#paint0_linear_74_411)"/>
<path d="M198.024 207.752V212.744H172.488V207.752H198.024ZM198.024 218.552V223.544H172.488V218.552H198.024ZM200.077 204.248V199.112H210.925V233H205.165V204.248H200.077ZM216.092 228.728C221.276 225.176 225.42 221.704 228.524 218.312C231.66 214.888 233.228 211.72 233.228 208.808C233.228 207.08 232.796 205.704 231.932 204.68C231.1 203.656 229.74 203.144 227.852 203.144C225.9 203.144 224.428 203.784 223.436 205.064C222.444 206.312 221.884 208.104 221.756 210.44H216.428C216.652 206.568 217.836 203.608 219.98 201.56C222.156 199.512 224.924 198.488 228.284 198.488C231.58 198.488 234.156 199.368 236.012 201.128C237.9 202.856 238.844 205.256 238.844 208.328C238.844 210.792 238.076 213.288 236.54 215.816C235.036 218.344 233.116 220.68 230.78 222.824C228.444 224.936 226.028 226.76 223.532 228.296H239.612V232.76H216.092V228.728ZM248.078 229.256C248.654 230.728 248.942 232.248 248.942 233.816C248.942 235.608 248.478 237.064 247.55 238.184C246.622 239.336 245.214 239.912 243.326 239.912V237.704C244.126 237.704 244.718 237.496 245.102 237.08C245.486 236.664 245.678 235.96 245.678 234.968V234.536H242.894V229.256H248.078ZM252.368 225.704V221.096L269.216 198.824H275.072V220.904H279.824V225.704H275.072V233H269.552V225.704H252.368ZM269.936 205.352L258.032 220.904H269.936V205.352ZM307.124 203.432H290.372V213.512C291.14 212.52 292.228 211.736 293.636 211.16C295.044 210.552 296.596 210.248 298.292 210.248C300.66 210.248 302.628 210.76 304.196 211.784C305.764 212.776 306.916 214.104 307.652 215.768C308.42 217.432 308.804 219.272 308.804 221.288C308.804 224.84 307.812 227.72 305.828 229.928C303.844 232.104 300.964 233.192 297.188 233.192C293.636 233.192 290.772 232.248 288.596 230.36C286.42 228.472 285.236 225.96 285.044 222.824H290.42C290.708 224.552 291.412 225.912 292.532 226.904C293.684 227.896 295.14 228.392 296.9 228.392C299.076 228.392 300.708 227.736 301.796 226.424C302.884 225.112 303.428 223.368 303.428 221.192C303.428 219.144 302.868 217.544 301.748 216.392C300.628 215.208 299.028 214.616 296.948 214.616C295.476 214.616 294.18 214.936 293.06 215.576C291.972 216.216 291.172 217.064 290.66 218.12H285.332V198.584H307.124V203.432ZM312.789 225.704V221.096L329.637 198.824H335.493V220.904H340.245V225.704H335.493V233H329.973V225.704H312.789ZM330.357 205.352L318.453 220.904H330.357V205.352Z" fill="white"/>
<path d="M177.92 151.592C177.792 150.584 177.448 149.808 176.888 149.264C176.344 148.704 175.584 148.424 174.608 148.424C173.248 148.424 172.216 148.952 171.512 150.008C170.824 151.064 170.48 152.736 170.48 155.024L170.504 155.912C170.744 154.952 171.296 154.192 172.16 153.632C173.024 153.056 174.04 152.768 175.208 152.768C176.888 152.768 178.2 153.272 179.144 154.28C180.104 155.288 180.584 156.696 180.584 158.504C180.584 159.56 180.376 160.52 179.96 161.384C179.544 162.232 178.904 162.912 178.04 163.424C177.192 163.92 176.136 164.168 174.872 164.168C172.456 164.168 170.792 163.408 169.88 161.888C168.984 160.368 168.536 158.304 168.536 155.696C168.536 152.688 169.016 150.432 169.976 148.928C170.952 147.408 172.536 146.648 174.728 146.648C176.344 146.648 177.584 147.104 178.448 148.016C179.328 148.928 179.848 150.12 180.008 151.592H177.92ZM170.744 158.144C170.744 159.312 171.08 160.296 171.752 161.096C172.44 161.88 173.464 162.272 174.824 162.272C175.944 162.272 176.84 161.944 177.512 161.288C178.184 160.616 178.52 159.68 178.52 158.48C178.52 157.184 178.184 156.2 177.512 155.528C176.84 154.84 175.912 154.496 174.728 154.496C174.056 154.496 173.416 154.632 172.808 154.904C172.2 155.176 171.704 155.592 171.32 156.152C170.936 156.696 170.744 157.36 170.744 158.144ZM183.274 155.432C183.274 158.152 183.722 160.272 184.618 161.792C185.514 163.312 187.066 164.072 189.274 164.072C191.482 164.072 193.034 163.312 193.93 161.792C194.842 160.272 195.298 158.152 195.298 155.432C195.298 152.744 194.842 150.64 193.93 149.12C193.034 147.6 191.482 146.84 189.274 146.84C187.066 146.84 185.514 147.6 184.618 149.12C183.722 150.624 183.274 152.728 183.274 155.432ZM193.138 155.432C193.138 156.824 193.034 157.992 192.826 158.936C192.634 159.864 192.258 160.608 191.698 161.168C191.138 161.728 190.33 162.008 189.274 162.008C188.234 162.008 187.434 161.728 186.874 161.168C186.314 160.608 185.93 159.864 185.722 158.936C185.53 157.992 185.434 156.824 185.434 155.432C185.434 154.056 185.53 152.904 185.722 151.976C185.93 151.048 186.314 150.312 186.874 149.768C187.434 149.208 188.234 148.928 189.274 148.928C190.33 148.928 191.138 149.208 191.698 149.768C192.258 150.312 192.634 151.048 192.826 151.976C193.034 152.904 193.138 154.056 193.138 155.432ZM198.016 155.432C198.016 158.152 198.464 160.272 199.36 161.792C200.256 163.312 201.808 164.072 204.016 164.072C206.224 164.072 207.776 163.312 208.672 161.792C209.584 160.272 210.04 158.152 210.04 155.432C210.04 152.744 209.584 150.64 208.672 149.12C207.776 147.6 206.224 146.84 204.016 146.84C201.808 146.84 200.256 147.6 199.36 149.12C198.464 150.624 198.016 152.728 198.016 155.432ZM207.88 155.432C207.88 156.824 207.776 157.992 207.568 158.936C207.376 159.864 207 160.608 206.44 161.168C205.88 161.728 205.072 162.008 204.016 162.008C202.976 162.008 202.176 161.728 201.616 161.168C201.056 160.608 200.672 159.864 200.464 158.936C200.272 157.992 200.176 156.824 200.176 155.432C200.176 154.056 200.272 152.904 200.464 151.976C200.672 151.048 201.056 150.312 201.616 149.768C202.176 149.208 202.976 148.928 204.016 148.928C205.072 148.928 205.88 149.208 206.44 149.768C207 150.312 207.376 151.048 207.568 151.976C207.776 152.904 207.88 154.056 207.88 155.432ZM212.759 155.432C212.759 158.152 213.207 160.272 214.103 161.792C214.999 163.312 216.551 164.072 218.759 164.072C220.967 164.072 222.519 163.312 223.415 161.792C224.327 160.272 224.783 158.152 224.783 155.432C224.783 152.744 224.327 150.64 223.415 149.12C222.519 147.6 220.967 146.84 218.759 146.84C216.551 146.84 214.999 147.6 214.103 149.12C213.207 150.624 212.759 152.728 212.759 155.432ZM222.623 155.432C222.623 156.824 222.519 157.992 222.311 158.936C222.119 159.864 221.743 160.608 221.183 161.168C220.623 161.728 219.815 162.008 218.759 162.008C217.719 162.008 216.919 161.728 216.359 161.168C215.799 160.608 215.415 159.864 215.207 158.936C215.015 157.992 214.919 156.824 214.919 155.432C214.919 154.056 215.015 152.904 215.207 151.976C215.415 151.048 215.799 150.312 216.359 149.768C216.919 149.208 217.719 148.928 218.759 148.928C219.815 148.928 220.623 149.208 221.183 149.768C221.743 150.312 222.119 151.048 222.311 151.976C222.519 152.904 222.623 154.056 222.623 155.432ZM236.094 162.32C238.814 160.496 240.99 158.688 242.622 156.896C244.254 155.088 245.07 153.408 245.07 151.856C245.07 150.896 244.822 150.128 244.326 149.552C243.846 148.96 243.062 148.664 241.974 148.664C240.854 148.664 240.006 149.024 239.43 149.744C238.854 150.448 238.534 151.424 238.47 152.672H236.31C236.422 150.784 237.006 149.336 238.062 148.328C239.118 147.304 240.478 146.792 242.142 146.792C243.726 146.792 244.982 147.216 245.91 148.064C246.838 148.912 247.302 150.112 247.302 151.664C247.302 152.944 246.886 154.248 246.054 155.576C245.238 156.888 244.206 158.112 242.958 159.248C241.726 160.368 240.454 161.32 239.142 162.104H247.734V163.904H236.094V162.32ZM269.707 146.624C270.795 146.624 271.731 146.816 272.515 147.2C273.299 147.584 273.891 148.112 274.291 148.784C274.691 149.456 274.891 150.216 274.891 151.064C274.891 152.12 274.579 153.008 273.955 153.728C273.347 154.448 272.451 154.88 271.267 155.024V155.168C272.499 155.488 273.459 155.984 274.147 156.656C274.851 157.328 275.203 158.256 275.203 159.44C275.203 160.832 274.739 161.968 273.811 162.848C272.883 163.728 271.547 164.168 269.803 164.168C268.059 164.168 266.643 163.72 265.555 162.824C264.483 161.912 263.851 160.584 263.659 158.84H265.819C265.963 159.896 266.363 160.736 267.019 161.36C267.691 161.984 268.595 162.296 269.731 162.296C270.803 162.296 271.627 162.024 272.203 161.48C272.779 160.92 273.067 160.2 273.067 159.32C273.067 158.264 272.651 157.464 271.819 156.92C271.003 156.36 269.835 156.08 268.315 156.08H267.739V154.256H268.315C271.259 154.256 272.731 153.272 272.731 151.304C272.731 150.44 272.459 149.752 271.915 149.24C271.371 148.728 270.619 148.472 269.659 148.472C268.699 148.472 267.891 148.752 267.235 149.312C266.579 149.856 266.195 150.664 266.083 151.736H263.947C264.059 150.136 264.611 148.888 265.603 147.992C266.611 147.08 267.979 146.624 269.707 146.624ZM277.672 162.32C280.392 160.496 282.568 158.688 284.2 156.896C285.832 155.088 286.648 153.408 286.648 151.856C286.648 150.896 286.4 150.128 285.904 149.552C285.424 148.96 284.64 148.664 283.552 148.664C282.432 148.664 281.584 149.024 281.008 149.744C280.432 150.448 280.112 151.424 280.048 152.672H277.888C278 150.784 278.584 149.336 279.64 148.328C280.696 147.304 282.056 146.792 283.72 146.792C285.304 146.792 286.56 147.216 287.488 148.064C288.416 148.912 288.88 150.112 288.88 151.664C288.88 152.944 288.464 154.248 287.632 155.576C286.816 156.888 285.784 158.112 284.536 159.248C283.304 160.368 282.032 161.32 280.72 162.104H289.312V163.904H277.672V162.32ZM291.289 162.32C294.009 160.496 296.185 158.688 297.817 156.896C299.449 155.088 300.265 153.408 300.265 151.856C300.265 150.896 300.017 150.128 299.521 149.552C299.041 148.96 298.257 148.664 297.169 148.664C296.049 148.664 295.201 149.024 294.625 149.744C294.049 150.448 293.729 151.424 293.665 152.672H291.505C291.617 150.784 292.201 149.336 293.257 148.328C294.313 147.304 295.673 146.792 297.337 146.792C298.921 146.792 300.177 147.216 301.105 148.064C302.033 148.912 302.497 150.112 302.497 151.664C302.497 152.944 302.081 154.248 301.249 155.576C300.433 156.888 299.401 158.112 298.153 159.248C296.921 160.368 295.649 161.32 294.337 162.104H302.929V163.904H291.289V162.32ZM315.322 148.664L308.914 164H306.61L313.114 148.88H304.234V146.984H315.322V148.664ZM328.461 162.32C331.181 160.496 333.357 158.688 334.989 156.896C336.621 155.088 337.437 153.408 337.437 151.856C337.437 150.896 337.189 150.128 336.693 149.552C336.213 148.96 335.429 148.664 334.341 148.664C333.221 148.664 332.373 149.024 331.797 149.744C331.221 150.448 330.901 151.424 330.837 152.672H328.677C328.789 150.784 329.373 149.336 330.429 148.328C331.485 147.304 332.845 146.792 334.509 146.792C336.093 146.792 337.349 147.216 338.277 148.064C339.205 148.912 339.669 150.112 339.669 151.664C339.669 152.944 339.253 154.248 338.421 155.576C337.605 156.888 336.573 158.112 335.325 159.248C334.093 160.368 332.821 161.32 331.509 162.104H340.101V163.904H328.461V162.32Z" fill="#818181"/>
<path d="M234.989 141.392L228.413 168.104H226.301L232.853 141.392H234.989ZM261.735 156.224H256.671V161.336H254.535V156.224H249.495V154.232H254.535V149.096H256.671V154.232H261.735V156.224ZM325.255 147.848L326.215 149.576L322.783 150.872L326.215 152.168L325.231 153.896L322.375 151.712L322.855 155.36H320.887L321.295 151.712L318.391 153.968L317.383 152.168L320.791 150.872L317.383 149.576L318.391 147.824L321.295 150.032L320.863 146.384H322.855L322.375 150.032L325.255 147.848Z" fill="#109DFF"/>
<defs>
<linearGradient id="paint0_linear_74_411" x1="387" y1="-43" x2="2.34152e-06" y2="848.5" gradientUnits="userSpaceOnUse">
<stop stop-color="#17181A"/>
<stop offset="1" stop-color="#17181A"/>
</linearGradient>
</defs>
</svg>
