<svg width="88" height="76" viewBox="0 0 88 76" fill="none" xmlns="http://www.w3.org/2000/svg">
<path fill-rule="evenodd" clip-rule="evenodd" d="M29.6926 2.11141C33.6255 -0.0371375 38.3745 -0.037138 42.3074 2.11141L65.1074 14.5673C69.3555 16.8881 72 21.3563 72 26.2132V49.7868C72 54.6438 69.3555 59.1119 65.1074 61.4327L42.3074 73.8886C38.3745 76.0371 33.6255 76.0371 29.6926 73.8886L6.89262 61.4327C2.64447 59.1119 0 54.6437 0 49.7868V26.2132C0 21.3563 2.64446 16.8881 6.89262 14.5673L29.6926 2.11141Z" fill="white"/>
<path fill-rule="evenodd" clip-rule="evenodd" d="M42.0776 28.5379V38.0329C42.0776 46.3969 37.7707 50.5 30.9664 50.5C24.1622 50.5 20 46.3574 20 38.2301V28.5379C20 26.8414 21.2306 25.5 22.7868 25.5C24.3431 25.5 25.5737 26.8414 25.5737 28.5379V38.0723C25.5737 42.57 27.6367 44.8977 31.0388 44.8977C34.4409 44.8977 36.5039 42.6489 36.5039 38.2696V28.5379C36.5039 26.8414 37.7345 25.5 39.2908 25.5C40.8471 25.5 42.0776 26.8414 42.0776 28.5379ZM49.2167 50.3027C47.6604 50.3027 46.4298 48.9613 46.4298 47.2649V28.5379C46.4298 26.8414 47.6604 25.5 49.2167 25.5C50.773 25.5 52.0035 26.8414 52.0035 28.5379V47.2649C52.0035 48.9613 50.773 50.3027 49.2167 50.3027Z" fill="#2B3036"/>
<path fill-rule="evenodd" clip-rule="evenodd" d="M71 34.5C80.3888 34.5 88 26.8888 88 17.5C88 8.11116 80.3888 0.5 71 0.5C61.6112 0.5 54 8.11116 54 17.5C54 26.8888 61.6112 34.5 71 34.5Z" fill="#2D68FF"/>
<path fill-rule="evenodd" clip-rule="evenodd" d="M71.0014 24.5C73.8726 24.5 76.0028 23.0222 76.0028 20.4944V20.4556C76.0028 18.8417 75.2248 17.9667 73.9097 17.2472C74.9099 16.6056 75.5583 15.7306 75.5583 14.2722V14.2333C75.5583 12.1333 73.7429 10.5 71.0014 10.5C68.2599 10.5 66.4446 12.1528 66.4446 14.2333V14.2722C66.4446 15.7306 67.0929 16.6056 68.0932 17.2472C66.7224 17.9083 66 18.8806 66 20.5333V20.5722C66 22.9444 68.1302 24.5 71.0014 24.5ZM71.0014 16.2556C69.8715 16.2556 69.149 15.5361 69.149 14.5833V14.5444C69.149 13.7083 69.8344 12.9694 71.0014 12.9694C72.1684 12.9694 72.8538 13.7278 72.8538 14.5639V14.6028C72.8538 15.5556 72.1314 16.2556 71.0014 16.2556ZM68.76 20.3389C68.76 21.2722 69.5936 22.0306 71.0014 22.0306C72.4092 22.0306 73.2428 21.2917 73.2428 20.3389V20.3C73.2428 19.25 72.2981 18.6278 71.0014 18.6278C69.7048 18.6278 68.76 19.25 68.76 20.3V20.3389Z" fill="white"/>
</svg>
